# xmcd
#
# Track frame offsets:
#	150
#	15561
#	32786
#	62888
#	92823
#	109005
#
# Disc length: 1830 seconds
#
# Revision: 1
# Processed by: cddbd v1.5.2PL0 Copyright (c) Steve Scherf et al.
# Submitted via: audiograbber 1.83.01
#
DISCID=46072406
DTITLE=Blue Grizzly Band - Broke Arse Blues Demo
DYEAR=2012
DGENRE=Blues
TTITLE0=Get Down with The Grizzly
TTITLE1=Broke Arse Blues
TTITLE2=Didn't Have The Blues
TTITLE3=MILF
TTITLE4=Creepy Rita
TTITLE5=Your Fantasy
EXTD=
EXTT0=
EXTT1=
EXTT2=
EXTT3=
EXTT4=
EXTT5=
PLAYORDER=
